<?xml version="1.0" standalone="no"?>
<!DOCTYPE svg PUBLIC "-//W3C//DTD SVG 20010904//EN"
 "http://www.w3.org/TR/2001/REC-SVG-20010904/DTD/svg10.dtd">
<svg version="1.0" xmlns="http://www.w3.org/2000/svg"
 width="248.000000pt" height="203.000000pt" viewBox="0 0 248.000000 203.000000"
 preserveAspectRatio="xMidYMid meet">

<g transform="translate(0.000000,203.000000) scale(0.100000,-0.10000)"
fill="#000FFF" stroke="none">
<path d="M730 1124 c-14 -2 -57 -9 -96 -15 -52 -8 -74 -17 -83 -31 -7 -11 -11
-22 -9 -24 2 -2 28 3 58 11 30 8 92 19 138 25 144 19 322 -20 417 -93 l40 -30
-35 37 c-43 46 -99 79 -167 99 -53 16 -217 29 -263 21z"/>
<path d="M1553 1120 c-92 -17 -160 -49 -216 -101 l-52 -50 47 35 c93 68 265
105 410 86 45 -6 109 -16 141 -24 59 -14 65 -12 44 15 -24 32 -270 57 -374 39z"/>
<path d="M745 1033 c-94 -11 -219 -39 -232 -51 -31 -31 3 -35 117 -12 90 18
136 22 235 18 113 -4 127 -6 188 -36 50 -25 71 -42 88 -71 47 -83 151 -83 198
0 17 29 38 46 88 71 62 30 74 33 192 36 100 3 147 -1 228 -17 123 -26 123 -26
123 -2 0 23 -82 46 -230 62 -214 25 -373 -26 -453 -144 -32 -48 -76 -32 -130
46 -48 71 -249 120 -412 100z"/>

</g>
</svg>
