<?xml version="1.0" standalone="no"?>
<!DOCTYPE svg PUBLIC "-//W3C//DTD SVG 20010904//EN"
 "http://www.w3.org/TR/2001/REC-SVG-20010904/DTD/svg10.dtd">
<svg version="1.0" xmlns="http://www.w3.org/2000/svg"
 width="235.000000pt" height="193.000000pt" viewBox="0 0 235.000000 193.000000"
 preserveAspectRatio="xMidYMid meet">

<g transform="translate(0.000000,193.000000) scale(0.100000,-0.100000)"
fill="#000000" stroke="none">
<path d="M622 1058 c-48 -8 -62 -13 -58 -24 4 -10 -2 -14 -19 -14 -13 0 -26
-4 -29 -8 -3 -5 17 -5 45 1 28 6 45 13 39 17 -7 4 62 7 151 6 145 -2 172 -4
229 -25 36 -13 83 -38 105 -54 l40 -31 -28 31 c-33 36 -123 87 -137 78 -5 -3
-10 -1 -10 6 0 7 -10 9 -25 7 -13 -3 -22 -2 -20 2 12 20 -172 25 -283 8z m186
-5 c-10 -2 -26 -2 -35 0 -10 3 -2 5 17 5 19 0 27 -2 18 -5z m-155 -10 c-7 -2
-19 -2 -25 0 -7 3 -2 5 12 5 14 0 19 -2 13 -5z"/>
<path d="M1475 1064 c-78 -17 -106 -28 -92 -36 9 -5 34 -4 59 2 81 18 258 10
341 -16 9 -3 17 -1 17 5 0 6 -15 12 -32 12 l-33 1 30 7 c26 6 19 8 -42 19 -68
11 -205 15 -248 6z m133 -11 c-10 -2 -28 -2 -40 0 -13 2 -5 4 17 4 22 1 32 -1
23 -4z m120 -10 c-10 -2 -26 -2 -35 0 -10 3 -2 5 17 5 19 0 27 -2 18 -5z"/>
<path d="M1810 1020 c6 -11 15 -20 20 -20 6 0 5 9 -2 20 -7 11 -16 20 -21 20
-4 0 -3 -9 3 -20z"/>
<path d="M1337 1009 c8 -8 16 -8 30 0 16 9 14 10 -11 11 -22 0 -27 -3 -19 -11z"/>
<path d="M1273 972 c-22 -20 -30 -30 -19 -21 12 9 34 23 50 31 16 8 24 18 19
21 -6 4 -28 -10 -50 -31z"/>
<path d="M710 984 c-41 -5 -187 -33 -212 -40 -19 -6 -24 -29 -9 -38 5 -3 51 4
102 15 74 16 121 20 219 17 115 -3 130 -5 185 -33 38 -19 69 -43 83 -65 29
-44 56 -59 105 -60 39 0 60 15 101 75 10 15 44 39 75 54 79 37 262 42 400 12
94 -21 111 -20 111 3 0 20 -104 45 -256 61 -151 16 -322 -39 -377 -122 -23
-34 -34 -43 -58 -43 -17 0 -36 8 -46 21 -64 76 -95 99 -159 119 -66 20 -197
32 -264 24z"/>
</g>
</svg>
